<svg width="197" height="49" viewBox="0 0 197 49" fill="none" xmlns="http://www.w3.org/2000/svg">
<path d="M28.8 39L28.76 22.2L20.52 36.04H17.6L9.40001 22.56V39H3.32001V11H8.68001L19.16 28.4L29.48 11H34.8L34.88 39H28.8ZM54.9231 39.48C52.0698 39.48 49.4831 38.8667 47.1631 37.64C44.8698 36.3867 43.0565 34.6667 41.7231 32.48C40.4165 30.2667 39.7631 27.7733 39.7631 25C39.7631 22.2267 40.4165 19.7467 41.7231 17.56C43.0565 15.3467 44.8698 13.6267 47.1631 12.4C49.4831 11.1467 52.0831 10.52 54.9631 10.52C57.3898 10.52 59.5765 10.9467 61.5231 11.8C63.4965 12.6533 65.1498 13.88 66.4831 15.48L62.3231 19.32C60.4298 17.1333 58.0831 16.04 55.2831 16.04C53.5498 16.04 52.0031 16.4267 50.6431 17.2C49.2831 17.9467 48.2165 19 47.4431 20.36C46.6965 21.72 46.3231 23.2667 46.3231 25C46.3231 26.7333 46.6965 28.28 47.4431 29.64C48.2165 31 49.2831 32.0667 50.6431 32.84C52.0031 33.5867 53.5498 33.96 55.2831 33.96C58.0831 33.96 60.4298 32.8533 62.3231 30.64L66.4831 34.48C65.1498 36.1067 63.4965 37.3467 61.5231 38.2C59.5498 39.0533 57.3498 39.48 54.9231 39.48ZM96.3391 39L96.2991 22.2L88.0591 36.04H85.1391L76.9391 22.56V39H70.8591V11H76.2191L86.6991 28.4L97.0191 11H102.339L102.419 39H96.3391Z" fill="#141414"/>
<path d="M115 10V40" stroke="#141414"/>
<path d="M128.555 16L125.891 9.03906H125.848C125.898 9.59049 125.923 10.2458 125.923 11.0049V16H125.08V8.14746H126.455L128.941 14.625H128.984L131.493 8.14746H132.857V16H131.944V10.9404C131.944 10.3604 131.969 9.73014 132.019 9.0498H131.976L129.291 16H128.555ZM138.997 16L138.82 15.1621H138.777C138.483 15.5309 138.189 15.7816 137.896 15.9141C137.606 16.043 137.242 16.1074 136.806 16.1074C136.222 16.1074 135.764 15.957 135.431 15.6562C135.101 15.3555 134.936 14.9276 134.936 14.3726C134.936 13.1838 135.887 12.5607 137.788 12.5034L138.787 12.4712V12.106C138.787 11.644 138.687 11.3039 138.487 11.0854C138.29 10.8634 137.973 10.7524 137.536 10.7524C137.045 10.7524 136.49 10.9028 135.871 11.2036L135.597 10.5215C135.887 10.3639 136.204 10.2404 136.548 10.1509C136.895 10.0614 137.242 10.0166 137.59 10.0166C138.292 10.0166 138.811 10.1724 139.147 10.4839C139.488 10.7954 139.658 11.2949 139.658 11.9824V16H138.997ZM136.983 15.3716C137.538 15.3716 137.973 15.2194 138.288 14.915C138.607 14.6107 138.766 14.1846 138.766 13.6367V13.105L137.874 13.1426C137.165 13.1676 136.653 13.2786 136.338 13.4756C136.027 13.6689 135.871 13.9715 135.871 14.3833C135.871 14.7056 135.968 14.9508 136.161 15.1191C136.358 15.2874 136.632 15.3716 136.983 15.3716ZM146.023 16V12.1919C146.023 11.7121 145.914 11.354 145.696 11.1177C145.477 10.8813 145.135 10.7632 144.67 10.7632C144.054 10.7632 143.603 10.9297 143.316 11.2627C143.03 11.5957 142.886 12.1453 142.886 12.9116V16H141.995V10.1133H142.72L142.865 10.9189H142.908C143.091 10.6289 143.347 10.4051 143.676 10.2476C144.005 10.0864 144.372 10.0059 144.777 10.0059C145.486 10.0059 146.02 10.1777 146.378 10.5215C146.736 10.8617 146.915 11.4077 146.915 12.1597V16H146.023ZM152.867 16L152.69 15.1621H152.647C152.353 15.5309 152.059 15.7816 151.766 15.9141C151.476 16.043 151.112 16.1074 150.675 16.1074C150.092 16.1074 149.633 15.957 149.3 15.6562C148.971 15.3555 148.806 14.9276 148.806 14.3726C148.806 13.1838 149.757 12.5607 151.658 12.5034L152.657 12.4712V12.106C152.657 11.644 152.557 11.3039 152.357 11.0854C152.16 10.8634 151.843 10.7524 151.406 10.7524C150.915 10.7524 150.36 10.9028 149.741 11.2036L149.467 10.5215C149.757 10.3639 150.074 10.2404 150.418 10.1509C150.765 10.0614 151.112 10.0166 151.46 10.0166C152.161 10.0166 152.681 10.1724 153.017 10.4839C153.357 10.7954 153.527 11.2949 153.527 11.9824V16H152.867ZM150.853 15.3716C151.408 15.3716 151.843 15.2194 152.158 14.915C152.477 14.6107 152.636 14.1846 152.636 13.6367V13.105L151.744 13.1426C151.035 13.1676 150.523 13.2786 150.208 13.4756C149.897 13.6689 149.741 13.9715 149.741 14.3833C149.741 14.7056 149.838 14.9508 150.031 15.1191C150.228 15.2874 150.502 15.3716 150.853 15.3716ZM160.683 10.1133V10.6772L159.592 10.8062C159.693 10.9315 159.782 11.0962 159.861 11.3003C159.94 11.5008 159.979 11.7282 159.979 11.9824C159.979 12.5589 159.782 13.019 159.388 13.3628C158.994 13.7065 158.454 13.8784 157.766 13.8784C157.591 13.8784 157.426 13.8641 157.272 13.8354C156.892 14.036 156.703 14.2884 156.703 14.5928C156.703 14.7539 156.769 14.8739 156.901 14.9526C157.034 15.0278 157.261 15.0654 157.584 15.0654H158.626C159.263 15.0654 159.752 15.1997 160.092 15.4683C160.436 15.7368 160.607 16.1271 160.607 16.6392C160.607 17.2909 160.346 17.7868 159.823 18.127C159.3 18.4707 158.538 18.6426 157.535 18.6426C156.765 18.6426 156.171 18.4993 155.752 18.2129C155.337 17.9264 155.129 17.5218 155.129 16.999C155.129 16.641 155.244 16.3312 155.473 16.0698C155.702 15.8084 156.024 15.6312 156.439 15.5381C156.289 15.4701 156.162 15.3644 156.058 15.2212C155.958 15.078 155.908 14.9115 155.908 14.7217C155.908 14.5068 155.965 14.3188 156.08 14.1577C156.194 13.9966 156.375 13.8408 156.622 13.6904C156.318 13.5651 156.069 13.3521 155.876 13.0513C155.686 12.7505 155.591 12.4067 155.591 12.02C155.591 11.3755 155.784 10.8796 156.171 10.5322C156.558 10.1813 157.105 10.0059 157.814 10.0059C158.122 10.0059 158.4 10.0417 158.647 10.1133H160.683ZM155.988 16.9883C155.988 17.307 156.123 17.5487 156.391 17.7134C156.66 17.8781 157.045 17.9604 157.546 17.9604C158.294 17.9604 158.848 17.8477 159.206 17.6221C159.567 17.4001 159.748 17.0975 159.748 16.7144C159.748 16.3957 159.65 16.1737 159.453 16.0483C159.256 15.9266 158.885 15.8657 158.341 15.8657H157.272C156.867 15.8657 156.552 15.9624 156.327 16.1558C156.101 16.3491 155.988 16.6266 155.988 16.9883ZM156.472 11.9985C156.472 12.4103 156.588 12.7218 156.821 12.9331C157.054 13.1444 157.378 13.25 157.793 13.25C158.663 13.25 159.098 12.8275 159.098 11.9824C159.098 11.098 158.658 10.6558 157.777 10.6558C157.358 10.6558 157.036 10.7686 156.81 10.9941C156.584 11.2197 156.472 11.5545 156.472 11.9985ZM164.873 16.1074C164.003 16.1074 163.315 15.8424 162.81 15.3125C162.309 14.7826 162.058 14.0467 162.058 13.105C162.058 12.1561 162.291 11.4023 162.757 10.8438C163.226 10.2852 163.854 10.0059 164.642 10.0059C165.38 10.0059 165.963 10.2493 166.393 10.7363C166.823 11.2197 167.037 11.8589 167.037 12.6538V13.2178H162.982C163 13.9089 163.174 14.4334 163.503 14.7915C163.836 15.1496 164.304 15.3286 164.905 15.3286C165.539 15.3286 166.166 15.1961 166.785 14.9312V15.7261C166.47 15.8621 166.171 15.9588 165.888 16.0161C165.609 16.077 165.27 16.1074 164.873 16.1074ZM164.631 10.7524C164.159 10.7524 163.781 10.9064 163.498 11.2144C163.219 11.5223 163.054 11.9484 163.004 12.4927H166.081C166.081 11.9305 165.956 11.5008 165.705 11.2036C165.455 10.9028 165.097 10.7524 164.631 10.7524ZM176.561 16V12.1704C176.561 11.7013 176.461 11.3504 176.261 11.1177C176.06 10.8813 175.748 10.7632 175.326 10.7632C174.771 10.7632 174.361 10.9225 174.096 11.2412C173.831 11.5599 173.699 12.0505 173.699 12.7129V16H172.807V12.1704C172.807 11.7013 172.707 11.3504 172.506 11.1177C172.306 10.8813 171.992 10.7632 171.566 10.7632C171.008 10.7632 170.598 10.9315 170.336 11.2681C170.078 11.6011 169.949 12.1489 169.949 12.9116V16H169.058V10.1133H169.783L169.928 10.9189H169.971C170.139 10.6325 170.376 10.4087 170.68 10.2476C170.988 10.0864 171.332 10.0059 171.711 10.0059C172.631 10.0059 173.233 10.3389 173.516 11.0049H173.559C173.734 10.6969 173.989 10.4535 174.322 10.2744C174.655 10.0954 175.034 10.0059 175.46 10.0059C176.126 10.0059 176.624 10.1777 176.953 10.5215C177.286 10.8617 177.453 11.4077 177.453 12.1597V16H176.561ZM182.277 16.1074C181.407 16.1074 180.719 15.8424 180.215 15.3125C179.713 14.7826 179.463 14.0467 179.463 13.105C179.463 12.1561 179.695 11.4023 180.161 10.8438C180.63 10.2852 181.258 10.0059 182.046 10.0059C182.784 10.0059 183.367 10.2493 183.797 10.7363C184.227 11.2197 184.442 11.8589 184.442 12.6538V13.2178H180.386C180.404 13.9089 180.578 14.4334 180.907 14.7915C181.24 15.1496 181.708 15.3286 182.309 15.3286C182.943 15.3286 183.57 15.1961 184.189 14.9312V15.7261C183.874 15.8621 183.575 15.9588 183.292 16.0161C183.013 16.077 182.674 16.1074 182.277 16.1074ZM182.035 10.7524C181.563 10.7524 181.185 10.9064 180.902 11.2144C180.623 11.5223 180.458 11.9484 180.408 12.4927H183.486C183.486 11.9305 183.36 11.5008 183.11 11.2036C182.859 10.9028 182.501 10.7524 182.035 10.7524ZM190.49 16V12.1919C190.49 11.7121 190.381 11.354 190.163 11.1177C189.944 10.8813 189.602 10.7632 189.137 10.7632C188.521 10.7632 188.07 10.9297 187.783 11.2627C187.497 11.5957 187.354 12.1453 187.354 12.9116V16H186.462V10.1133H187.187L187.332 10.9189H187.375C187.558 10.6289 187.814 10.4051 188.143 10.2476C188.473 10.0864 188.84 10.0059 189.244 10.0059C189.953 10.0059 190.487 10.1777 190.845 10.5215C191.203 10.8617 191.382 11.4077 191.382 12.1597V16H190.49ZM195.615 15.3716C195.773 15.3716 195.925 15.3608 196.072 15.3394C196.219 15.3143 196.335 15.2892 196.421 15.2642V15.9463C196.324 15.9928 196.181 16.0304 195.991 16.0591C195.805 16.0913 195.637 16.1074 195.486 16.1074C194.348 16.1074 193.778 15.5076 193.778 14.3081V10.8062H192.935V10.3765L193.778 10.0059L194.154 8.74902H194.67V10.1133H196.378V10.8062H194.67V14.2705C194.67 14.625 194.754 14.8971 194.922 15.0869C195.091 15.2767 195.322 15.3716 195.615 15.3716ZM128.442 20.8511C127.579 20.8511 126.897 21.1393 126.396 21.7158C125.898 22.2887 125.649 23.0747 125.649 24.0737C125.649 25.1014 125.889 25.8963 126.369 26.4585C126.852 27.0171 127.54 27.2964 128.431 27.2964C128.979 27.2964 129.604 27.1979 130.306 27.001V27.8013C129.761 28.0054 129.09 28.1074 128.292 28.1074C127.135 28.1074 126.242 27.7565 125.611 27.0547C124.985 26.3529 124.671 25.3556 124.671 24.063C124.671 23.2537 124.822 22.5448 125.123 21.936C125.427 21.3273 125.864 20.8582 126.433 20.5288C127.006 20.1994 127.679 20.0347 128.453 20.0347C129.276 20.0347 129.996 20.1851 130.612 20.4858L130.225 21.27C129.631 20.9907 129.036 20.8511 128.442 20.8511ZM137.461 25.0513C137.461 26.0109 137.219 26.7611 136.736 27.3018C136.252 27.8389 135.585 28.1074 134.732 28.1074C134.206 28.1074 133.739 27.9839 133.33 27.7368C132.922 27.4897 132.607 27.1353 132.385 26.6733C132.163 26.2114 132.052 25.6707 132.052 25.0513C132.052 24.0916 132.292 23.3451 132.772 22.8115C133.252 22.2744 133.918 22.0059 134.77 22.0059C135.593 22.0059 136.247 22.2798 136.73 22.8276C137.217 23.3755 137.461 24.1167 137.461 25.0513ZM132.976 25.0513C132.976 25.8032 133.126 26.3761 133.427 26.77C133.728 27.1639 134.17 27.3608 134.754 27.3608C135.337 27.3608 135.78 27.1657 136.08 26.7754C136.385 26.3815 136.537 25.8068 136.537 25.0513C136.537 24.3029 136.385 23.7354 136.08 23.3486C135.78 22.9583 135.334 22.7632 134.743 22.7632C134.159 22.7632 133.719 22.9548 133.422 23.3379C133.125 23.721 132.976 24.2922 132.976 25.0513ZM147.028 28V24.1704C147.028 23.7013 146.927 23.3504 146.727 23.1177C146.526 22.8813 146.215 22.7632 145.792 22.7632C145.237 22.7632 144.827 22.9225 144.562 23.2412C144.297 23.5599 144.165 24.0505 144.165 24.7129V28H143.273V24.1704C143.273 23.7013 143.173 23.3504 142.972 23.1177C142.772 22.8813 142.459 22.7632 142.032 22.7632C141.474 22.7632 141.064 22.9315 140.802 23.2681C140.545 23.6011 140.416 24.1489 140.416 24.9116V28H139.524V22.1133H140.249L140.394 22.9189H140.437C140.606 22.6325 140.842 22.4087 141.146 22.2476C141.454 22.0864 141.798 22.0059 142.177 22.0059C143.098 22.0059 143.699 22.3389 143.982 23.0049H144.025C144.201 22.6969 144.455 22.4535 144.788 22.2744C145.121 22.0954 145.5 22.0059 145.927 22.0059C146.593 22.0059 147.09 22.1777 147.42 22.5215C147.753 22.8617 147.919 23.4077 147.919 24.1597V28H147.028ZM152.996 28.1074C152.613 28.1074 152.262 28.0376 151.943 27.8979C151.628 27.7547 151.363 27.5363 151.148 27.2427H151.084C151.127 27.5864 151.148 27.9123 151.148 28.2202V30.6426H150.256V22.1133H150.982L151.105 22.9189H151.148C151.377 22.5967 151.644 22.3639 151.948 22.2207C152.253 22.0775 152.602 22.0059 152.996 22.0059C153.776 22.0059 154.378 22.2726 154.8 22.8062C155.227 23.3397 155.44 24.0881 155.44 25.0513C155.44 26.0181 155.223 26.77 154.79 27.3071C154.36 27.8407 153.762 28.1074 152.996 28.1074ZM152.867 22.7632C152.265 22.7632 151.83 22.9297 151.562 23.2627C151.293 23.5957 151.155 24.1257 151.148 24.8525V25.0513C151.148 25.8784 151.286 26.471 151.562 26.8291C151.837 27.1836 152.28 27.3608 152.888 27.3608C153.397 27.3608 153.794 27.1549 154.081 26.7432C154.371 26.3314 154.516 25.7638 154.516 25.0405C154.516 24.3065 154.371 23.7443 154.081 23.354C153.794 22.9601 153.39 22.7632 152.867 22.7632ZM161.118 28L160.94 27.1621H160.897C160.604 27.5309 160.31 27.7816 160.017 27.9141C159.727 28.043 159.363 28.1074 158.926 28.1074C158.343 28.1074 157.884 27.957 157.551 27.6562C157.222 27.3555 157.057 26.9276 157.057 26.3726C157.057 25.1838 158.008 24.5607 159.909 24.5034L160.908 24.4712V24.106C160.908 23.644 160.808 23.3039 160.607 23.0854C160.411 22.8634 160.094 22.7524 159.657 22.7524C159.166 22.7524 158.611 22.9028 157.992 23.2036L157.718 22.5215C158.008 22.3639 158.325 22.2404 158.668 22.1509C159.016 22.0614 159.363 22.0166 159.71 22.0166C160.412 22.0166 160.931 22.1724 161.268 22.4839C161.608 22.7954 161.778 23.2949 161.778 23.9824V28H161.118ZM159.104 27.3716C159.659 27.3716 160.094 27.2194 160.409 26.915C160.727 26.6107 160.887 26.1846 160.887 25.6367V25.105L159.995 25.1426C159.286 25.1676 158.774 25.2786 158.459 25.4756C158.147 25.6689 157.992 25.9715 157.992 26.3833C157.992 26.7056 158.088 26.9508 158.282 27.1191C158.479 27.2874 158.753 27.3716 159.104 27.3716ZM168.144 28V24.1919C168.144 23.7121 168.035 23.354 167.816 23.1177C167.598 22.8813 167.256 22.7632 166.79 22.7632C166.175 22.7632 165.723 22.9297 165.437 23.2627C165.15 23.5957 165.007 24.1453 165.007 24.9116V28H164.116V22.1133H164.841L164.986 22.9189H165.029C165.211 22.6289 165.467 22.4051 165.797 22.2476C166.126 22.0864 166.493 22.0059 166.898 22.0059C167.607 22.0059 168.14 22.1777 168.498 22.5215C168.857 22.8617 169.036 23.4077 169.036 24.1597V28H168.144ZM170.433 22.1133H171.389L172.678 25.4702C172.961 26.2365 173.136 26.7897 173.204 27.1299H173.247C173.294 26.9473 173.391 26.6357 173.537 26.1953C173.688 25.7513 174.175 24.3906 174.998 22.1133H175.954L173.425 28.8164C173.174 29.4788 172.88 29.9479 172.544 30.2236C172.211 30.5029 171.801 30.6426 171.314 30.6426C171.042 30.6426 170.773 30.6121 170.508 30.5513V29.8369C170.705 29.8799 170.925 29.9014 171.169 29.9014C171.781 29.9014 172.218 29.5576 172.479 28.8701L172.807 28.0322L170.433 22.1133ZM128.555 40L125.891 33.0391H125.848C125.898 33.5905 125.923 34.2458 125.923 35.0049V40H125.08V32.1475H126.455L128.941 38.625H128.984L131.493 32.1475H132.857V40H131.944V34.9404C131.944 34.3604 131.969 33.7301 132.019 33.0498H131.976L129.291 40H128.555ZM140.458 37.0513C140.458 38.0109 140.216 38.7611 139.733 39.3018C139.249 39.8389 138.582 40.1074 137.729 40.1074C137.203 40.1074 136.736 39.9839 136.328 39.7368C135.919 39.4897 135.604 39.1353 135.382 38.6733C135.16 38.2114 135.049 37.6707 135.049 37.0513C135.049 36.0916 135.289 35.3451 135.769 34.8115C136.249 34.2744 136.915 34.0059 137.767 34.0059C138.591 34.0059 139.244 34.2798 139.727 34.8276C140.214 35.3755 140.458 36.1167 140.458 37.0513ZM135.973 37.0513C135.973 37.8032 136.123 38.3761 136.424 38.77C136.725 39.1639 137.167 39.3608 137.751 39.3608C138.335 39.3608 138.777 39.1657 139.078 38.7754C139.382 38.3815 139.534 37.8068 139.534 37.0513C139.534 36.3029 139.382 35.7354 139.078 35.3486C138.777 34.9583 138.331 34.7632 137.74 34.7632C137.156 34.7632 136.716 34.9548 136.419 35.3379C136.122 35.721 135.973 36.2922 135.973 37.0513ZM146.55 40V36.1919C146.55 35.7121 146.44 35.354 146.222 35.1177C146.004 34.8813 145.662 34.7632 145.196 34.7632C144.58 34.7632 144.129 34.9297 143.843 35.2627C143.556 35.5957 143.413 36.1453 143.413 36.9116V40H142.521V34.1133H143.246L143.391 34.9189H143.434C143.617 34.6289 143.873 34.4051 144.202 34.2476C144.532 34.0864 144.899 34.0059 145.303 34.0059C146.012 34.0059 146.546 34.1777 146.904 34.5215C147.262 34.8617 147.441 35.4077 147.441 36.1597V40H146.55ZM154.854 37.0513C154.854 38.0109 154.612 38.7611 154.129 39.3018C153.646 39.8389 152.978 40.1074 152.126 40.1074C151.599 40.1074 151.132 39.9839 150.724 39.7368C150.316 39.4897 150 39.1353 149.778 38.6733C149.556 38.2114 149.445 37.6707 149.445 37.0513C149.445 36.0916 149.685 35.3451 150.165 34.8115C150.645 34.2744 151.311 34.0059 152.163 34.0059C152.987 34.0059 153.64 34.2798 154.124 34.8276C154.611 35.3755 154.854 36.1167 154.854 37.0513ZM150.369 37.0513C150.369 37.8032 150.52 38.3761 150.82 38.77C151.121 39.1639 151.563 39.3608 152.147 39.3608C152.731 39.3608 153.173 39.1657 153.474 38.7754C153.778 38.3815 153.93 37.8068 153.93 37.0513C153.93 36.3029 153.778 35.7354 153.474 35.3486C153.173 34.9583 152.727 34.7632 152.136 34.7632C151.553 34.7632 151.112 34.9548 150.815 35.3379C150.518 35.721 150.369 36.2922 150.369 37.0513ZM159.657 40.1074C159.274 40.1074 158.923 40.0376 158.604 39.8979C158.289 39.7547 158.024 39.5363 157.809 39.2427H157.745C157.788 39.5864 157.809 39.9123 157.809 40.2202V42.6426H156.917V34.1133H157.643L157.766 34.9189H157.809C158.038 34.5967 158.305 34.3639 158.609 34.2207C158.914 34.0775 159.263 34.0059 159.657 34.0059C160.437 34.0059 161.039 34.2726 161.461 34.8062C161.888 35.3397 162.101 36.0881 162.101 37.0513C162.101 38.0181 161.884 38.77 161.451 39.3071C161.021 39.8407 160.423 40.1074 159.657 40.1074ZM159.528 34.7632C158.926 34.7632 158.491 34.9297 158.223 35.2627C157.954 35.5957 157.816 36.1257 157.809 36.8525V37.0513C157.809 37.8784 157.947 38.471 158.223 38.8291C158.498 39.1836 158.941 39.3608 159.549 39.3608C160.058 39.3608 160.455 39.1549 160.742 38.7432C161.032 38.3314 161.177 37.7638 161.177 37.0405C161.177 36.3065 161.032 35.7443 160.742 35.354C160.455 34.9601 160.051 34.7632 159.528 34.7632ZM169.24 37.0513C169.24 38.0109 168.998 38.7611 168.515 39.3018C168.031 39.8389 167.363 40.1074 166.511 40.1074C165.985 40.1074 165.517 39.9839 165.109 39.7368C164.701 39.4897 164.386 39.1353 164.164 38.6733C163.942 38.2114 163.831 37.6707 163.831 37.0513C163.831 36.0916 164.071 35.3451 164.551 34.8115C165.03 34.2744 165.697 34.0059 166.549 34.0059C167.372 34.0059 168.026 34.2798 168.509 34.8276C168.996 35.3755 169.24 36.1167 169.24 37.0513ZM164.755 37.0513C164.755 37.8032 164.905 38.3761 165.206 38.77C165.507 39.1639 165.949 39.3608 166.533 39.3608C167.116 39.3608 167.558 39.1657 167.859 38.7754C168.164 38.3815 168.316 37.8068 168.316 37.0513C168.316 36.3029 168.164 35.7354 167.859 35.3486C167.558 34.9583 167.113 34.7632 166.522 34.7632C165.938 34.7632 165.498 34.9548 165.201 35.3379C164.903 35.721 164.755 36.2922 164.755 37.0513ZM172.195 40H171.303V31.6426H172.195V40ZM173.646 34.1133H174.602L175.891 37.4702C176.174 38.2365 176.349 38.7897 176.417 39.1299H176.46C176.507 38.9473 176.603 38.6357 176.75 38.1953C176.901 37.7513 177.388 36.3906 178.211 34.1133H179.167L176.637 40.8164C176.387 41.4788 176.093 41.9479 175.757 42.2236C175.423 42.5029 175.014 42.6426 174.527 42.6426C174.254 42.6426 173.986 42.6121 173.721 42.5513V41.8369C173.918 41.8799 174.138 41.9014 174.382 41.9014C174.994 41.9014 175.431 41.5576 175.692 40.8701L176.02 40.0322L173.646 34.1133Z" fill="#141414"/>
</svg>
