<svg width="11" height="14" viewBox="0 0 11 14" fill="none" xmlns="http://www.w3.org/2000/svg">
<path d="M5.32842 0.578125C4.58884 0.578125 3.89613 0.71875 3.25029 1C2.60446 1.28125 2.03936 1.66406 1.55498 2.14844C1.07061 2.63281 0.693003 3.19792 0.42217 3.84375C0.14092 4.48958 0.000294811 5.17708 0.000294811 5.90625C-0.0101219 6.98958 0.255503 8.00521 0.79717 8.95312C1.32842 9.91146 1.92217 10.7526 2.57842 11.4766C3.23467 12.2005 3.84404 12.776 4.40654 13.2031C4.96904 13.6406 5.27634 13.8802 5.32842 13.9219C5.32842 13.9219 5.60967 13.7031 6.17217 13.2656C6.72425 12.8385 7.33363 12.2578 8.00029 11.5234C8.66696 10.7891 9.28154 9.94271 9.84404 8.98438C10.3961 8.01562 10.667 6.99479 10.6565 5.92188C10.6565 5.18229 10.5159 4.48958 10.2347 3.84375C9.96384 3.19792 9.58623 2.63281 9.10186 2.14844C8.61748 1.66406 8.05238 1.28125 7.40654 1C6.76071 0.71875 6.068 0.578125 5.32842 0.578125ZM5.32842 8.57812C4.58884 8.57812 3.95863 8.31771 3.43779 7.79688C2.91696 7.27604 2.65654 6.65104 2.65654 5.92188C2.65654 5.18229 2.91696 4.55208 3.43779 4.03125C3.95863 3.51042 4.58884 3.25 5.32842 3.25C6.068 3.25 6.69821 3.51042 7.21904 4.03125C7.73988 4.55208 8.00029 5.18229 8.00029 5.92188C8.00029 6.65104 7.73988 7.27604 7.21904 7.79688C6.69821 8.31771 6.068 8.57812 5.32842 8.57812Z" fill="white"/>
</svg>
