<svg width="14" height="12" viewBox="0 0 14 12" fill="none" xmlns="http://www.w3.org/2000/svg">
<path d="M12.12 0.921875H1.46375C1.08875 0.921875 0.771037 1.05208 0.51062 1.3125C0.250203 1.57292 0.119995 1.88542 0.119995 2.25V10.25C0.119995 10.6146 0.250203 10.9271 0.51062 11.1875C0.771037 11.4479 1.08875 11.5781 1.46375 11.5781H12.12C12.495 11.5781 12.8127 11.4479 13.0731 11.1875C13.3335 10.9271 13.4637 10.6146 13.4637 10.25V2.25C13.4637 1.88542 13.3335 1.57292 13.0731 1.3125C12.8127 1.05208 12.495 0.921875 12.12 0.921875ZM12.12 4.04688L6.79187 7.60938L1.46375 4.04688V2.45312L6.79187 6L12.12 2.45312V4.04688Z" fill="white"/>
</svg>
