<svg width="12" height="13" viewBox="0 0 12 13" fill="none" xmlns="http://www.w3.org/2000/svg">
<path d="M11.6562 9.67188L8.95312 7.21875C8.81771 7.09375 8.65885 7.03385 8.47656 7.03906C8.29427 7.04427 8.14062 7.10938 8.01562 7.23438L6.42188 8.875C6.23438 8.84375 5.96354 8.7526 5.60938 8.60156C5.25521 8.45052 4.875 8.17708 4.46875 7.78125C4.07292 7.375 3.79948 6.99479 3.64844 6.64062C3.4974 6.28646 3.40625 6.01562 3.375 5.82812L5 4.23438C5.13542 4.10938 5.20573 3.95573 5.21094 3.77344C5.21615 3.59115 5.15625 3.43229 5.03125 3.29688L2.57812 0.59375C2.45312 0.458333 2.29948 0.385417 2.11719 0.375C1.9349 0.364583 1.77604 0.416667 1.64062 0.53125L0.203125 1.78125C0.140625 1.83333 0.09375 1.89583 0.0625 1.96875C0.03125 2.04167 0.0104167 2.11979 0 2.20312C0 2.24479 0.00520833 2.5 0.015625 2.96875C0.0260417 3.4375 0.114583 4.01823 0.28125 4.71094C0.447917 5.40365 0.729167 6.16667 1.125 7C1.52083 7.82292 2.09896 8.61979 2.85938 9.39062C3.53646 10.0573 4.23438 10.5781 4.95312 10.9531C5.67188 11.3385 6.35156 11.6276 6.99219 11.8203C7.63281 12.013 8.20312 12.1302 8.70312 12.1719C9.20312 12.224 9.56771 12.25 9.79688 12.25C9.86979 12.25 9.92708 12.25 9.96875 12.25C10.0104 12.25 10.0365 12.25 10.0469 12.25C10.1302 12.2396 10.2083 12.2188 10.2812 12.1875C10.3542 12.1562 10.4167 12.1094 10.4688 12.0469L11.7188 10.6094C11.8333 10.4635 11.8854 10.3021 11.875 10.125C11.8646 9.94792 11.7917 9.79688 11.6562 9.67188Z" fill="white"/>
</svg>
