<svg width="23" height="22" viewBox="0 0 23 22" fill="none" xmlns="http://www.w3.org/2000/svg">
<path fill-rule="evenodd" clip-rule="evenodd" d="M3.5 19.25C3.30109 19.25 3.11032 19.171 2.96967 19.0303C2.82902 18.8897 2.75 18.6989 2.75 18.5V3.5C2.75 3.30109 2.82902 3.11032 2.96967 2.96967C3.11032 2.82902 3.30109 2.75 3.5 2.75H17.375C17.6734 2.75 17.9595 2.63147 18.1705 2.4205C18.3815 2.20952 18.5 1.92337 18.5 1.625C18.5 1.32663 18.3815 1.04048 18.1705 0.829505C17.9595 0.618526 17.6734 0.5 17.375 0.5H3.5C2.70435 0.5 1.94129 0.816071 1.37868 1.37868C0.816071 1.94129 0.5 2.70435 0.5 3.5V18.5C0.5 19.2956 0.816071 20.0587 1.37868 20.6213C1.94129 21.1839 2.70435 21.5 3.5 21.5H18.5C19.2956 21.5 20.0587 21.1839 20.6213 20.6213C21.1839 20.0587 21.5 19.2956 21.5 18.5V13.625C21.5 13.3266 21.3815 13.0405 21.1705 12.8295C20.9595 12.6185 20.6734 12.5 20.375 12.5C20.0766 12.5 19.7905 12.6185 19.5795 12.8295C19.3685 13.0405 19.25 13.3266 19.25 13.625V18.5C19.25 18.6989 19.171 18.8897 19.0303 19.0303C18.8897 19.171 18.6989 19.25 18.5 19.25H3.5ZM22.67 6.02C22.8687 5.80674 22.9769 5.52467 22.9718 5.23322C22.9666 4.94176 22.8486 4.66369 22.6424 4.45757C22.4363 4.25145 22.1582 4.13338 21.8668 4.12824C21.5753 4.1231 21.2933 4.23128 21.08 4.43L12.743 12.7655L9.9335 9.8615C9.831 9.75439 9.70833 9.6686 9.57256 9.60906C9.43679 9.54952 9.29059 9.5174 9.14236 9.51455C8.99414 9.5117 8.84681 9.53817 8.70885 9.59245C8.57089 9.64673 8.44502 9.72774 8.33847 9.83083C8.23192 9.93391 8.1468 10.057 8.088 10.1931C8.0292 10.3292 7.99788 10.4756 7.99584 10.6238C7.9938 10.7721 8.02107 10.9193 8.07611 11.0569C8.13114 11.1946 8.21283 11.32 8.3165 11.426L11.921 15.152C12.0247 15.2596 12.1488 15.3454 12.2861 15.4045C12.4233 15.4635 12.5709 15.4947 12.7204 15.4961C12.8698 15.4975 13.018 15.4691 13.1563 15.4126C13.2946 15.3561 13.4203 15.2726 13.526 15.167L22.67 6.02Z" fill="#3764EB"/>
</svg>
