<svg width="37" height="37" viewBox="0 0 37 37" fill="none" xmlns="http://www.w3.org/2000/svg">
<rect x="-0.5" y="0.5" width="36" height="36" rx="18" transform="matrix(-1 0 0 1 36 0)" stroke="#5CA7FF"/>
<g clip-path="url(#clip0_147_1475)">
<path d="M26.8536 18.1526C27.0488 18.3479 27.0488 18.6645 26.8536 18.8598L23.6716 22.0417C23.4763 22.237 23.1597 22.237 22.9645 22.0417C22.7692 21.8465 22.7692 21.5299 22.9645 21.3346L25.7929 18.5062L22.9645 15.6778C22.7692 15.4825 22.7692 15.1659 22.9645 14.9707C23.1597 14.7754 23.4763 14.7754 23.6716 14.9707L26.8536 18.1526ZM9.5 18.0062L26.5 18.0062V19.0062L9.5 19.0062V18.0062Z" fill="#5CA7FF"/>
</g>
<defs>
<clipPath id="clip0_147_1475">
<rect width="18" height="9" fill="white" transform="matrix(-1 0 0 1 27.5 14)"/>
</clipPath>
</defs>
</svg>
